<?xml version="1.0" encoding="UTF-8"?>
<svg id="Layer_1" data-name="Layer 1" xmlns="http://www.w3.org/2000/svg" viewBox="0 0 1700 1100">
  <defs>
    <style>
      .cls-1 {
        fill: #e6e2df;
      }
    </style>
  </defs>
  <path class="cls-1" d="M1490.39,523.03c-31.05-36.02-70.32-60.72-113-80.37-61.77-28.43-126.71-45.08-193.38-54.67,18.05-28.66,34.02-58.69,47.36-90.45,18.47-43.99,30.52-89.34,27.65-137.75-3.44-58.06-36.63-101.87-91.89-120.13-33.46-11.06-67.84-11.78-102.45-8-58.33,6.38-113.31,24.53-166.31,48.89-108.74,49.98-203.63,119.74-287.89,204.22-63.12,63.27-117.67,133.04-156.9,213.87-36.99,17.64-72.99,37.63-107.8,60.39-56.04,36.64-106.79,79.15-143.89,135.92-62.12,95.05-46.74,190.92,42.01,261.82,39,31.16,83.59,51.77,119.19,64.53,66.98,23.58,141.95,38.89,212.7,44.68,173.03,14.18,342.37-6.23,508.29-55.98,107.9-32.35,210.25-76.93,301.65-143.99,51.91-38.08,97.33-82.2,127.62-140.21,36.32-69.57,28.32-143.31-22.94-202.8Zm-829.65-245.93c59.27-58.03,125.08-107.01,200.72-141.86,40.11-18.47,81.58-32.71,126.48-32.23,12.58,.14,25.57,1.78,37.62,5.29,37.67,10.99,58.28,41.5,57.71,83.12-.48,34.45-11.26,66.22-25.7,96.91-25.7,54.61-61.39,102.36-102.45,146.17-64.88,69.21-138.48,126.96-225.45,166.03-14.96,6.72-30.43,12.29-46.26,17.78-26.52,9.19-54.41,14.2-82.48,13.95-5.74-.05-11.48-.31-17.18-.91-48.85-5.12-75.96-37.71-75.21-87.04,.09-5.66,.47-11.23,1.09-16.75,2.77-22.95,9.89-44.5,15.17-58.1,3.04-7.67,6.4-15.26,9.98-22.78,30.85-64.76,75.07-119.73,125.98-169.57Zm627.25,363.34c-24.46,39.54-58.99,68.81-97.01,94.3-67.65,45.35-142.09,75.84-220.02,98.03-123.13,35.05-248.38,50.79-376.13,35.63-21.75-2.58-43.3-6.82-65.2-11.4-37.77-7.91-74.18-21.71-107.01-42-6.19-3.82-12.23-7.86-18.03-12.22-52.96-39.84-61.72-96.36-26.61-152.94,11.45-18.46,25.12-34.65,40.29-49.28-2.38,12.94-3.94,26.11-4.46,39.57-3.25,84.08,43.08,139.15,126.51,150.37,36.66,4.93,72.85,1.03,100.34-4.42,51.55-10.55,105.03-29.4,152.2-52.69,115.37-56.95,215.2-134.48,301.68-229.34,20.08-22.03,39.09-44.79,56.75-68.47,30.55,7.94,60.06,19.37,87.75,36.4,14.47,8.89,28.35,19.8,39.86,32.24,35.96,38.87,38.63,88.48,9.08,136.24Z"/>
</svg>