<svg width="42" height="32" viewBox="0 0 42 32" fill="none" xmlns="http://www.w3.org/2000/svg">
<path d="M40.1004 14.8807C39.1619 13.7945 37.9736 13.0493 36.6836 12.4567C34.815 11.5982 32.8496 11.0975 30.8327 10.8077C31.3791 9.94332 31.8645 9.03836 32.2686 8.07975C32.8269 6.75271 33.1915 5.38514 33.1042 3.92576C33.0002 2.17545 31.996 0.853185 30.3258 0.303532C29.3144 -0.0303137 28.2743 -0.0517739 27.2283 0.0626875C25.4649 0.254649 23.8019 0.801916 22.1987 1.53757C18.911 3.04464 16.0418 5.14906 13.4929 7.69582C11.5837 9.6047 9.93508 11.7079 8.74793 14.1462C7.63012 14.678 6.54101 15.2801 5.48895 15.9668C3.7949 17.0721 2.25986 18.3538 1.13726 20.066C-0.740894 22.9323 -0.275838 25.8236 2.4069 27.9614C3.58569 28.901 4.93423 29.5222 6.01139 29.9073C8.0366 30.6191 10.3033 31.0805 12.4433 31.2546C17.6749 31.6826 22.7953 31.0662 27.8129 29.5663C31.0754 28.591 34.1706 27.2461 36.9347 25.2239C38.5044 24.0757 39.878 22.7451 40.7938 20.996C41.8925 18.8975 41.6498 16.6739 40.1004 14.8807ZM15.0136 7.46452C16.8057 5.71421 18.7963 4.23695 21.0833 3.18653C22.2955 2.62972 23.5508 2.20049 24.9078 2.2148C25.2879 2.21837 25.6813 2.26845 26.0459 2.37457C27.1852 2.70603 27.8081 3.62649 27.7913 4.88079C27.777 5.91929 27.4506 6.8779 27.0143 7.80313C26.2372 9.44971 25.1576 10.89 23.9167 12.2111C21.9548 14.2988 19.7288 16.0396 17.0998 17.2176C16.6479 17.4203 16.1793 17.5884 15.7011 17.7541C14.8989 18.0319 14.056 18.1821 13.2072 18.175C13.0339 18.1738 12.8605 18.1655 12.6884 18.1476C11.2119 17.9926 10.3918 17.0101 10.4145 15.5221C10.4169 15.3981 10.4229 15.2753 10.4336 15.1537C10.436 15.1239 10.4396 15.0953 10.4432 15.0667C10.4492 15.0023 10.4587 14.9391 10.4671 14.8759C10.5484 14.3274 10.7038 13.8159 10.8401 13.4404C10.852 13.4082 10.864 13.376 10.876 13.3438C10.8867 13.3152 10.8975 13.2877 10.9082 13.2603C11.0003 13.0302 11.1007 12.8037 11.2071 12.5783C12.1396 10.6253 13.4774 8.96802 15.016 7.46452H15.0136ZM33.9805 18.4218C33.2405 19.6141 32.1968 20.4964 31.0467 21.2655C29.0012 22.633 26.75 23.5523 24.3937 24.2212C20.6708 25.2788 16.8834 25.7533 13.0195 25.2954C12.3596 25.2179 11.7068 25.0892 11.0421 24.9509C9.90161 24.7124 8.80293 24.2963 7.81184 23.6858C7.62534 23.5702 7.44243 23.4486 7.26669 23.3174C5.66469 22.1156 5.40048 20.4118 6.4621 18.7056C6.80761 18.1488 7.22245 17.6623 7.68153 17.2212C7.6098 17.611 7.56198 18.0069 7.54644 18.4123C7.44841 20.9483 8.84955 22.608 11.3721 22.9466C12.4803 23.0956 13.5754 22.9776 14.4063 22.8131C15.9653 22.4947 17.5828 21.926 19.0091 21.2237C22.4976 19.5068 25.5163 17.1687 28.1309 14.3072C28.7382 13.643 29.3108 12.9563 29.8452 12.2433C30.7694 12.4829 31.6624 12.8263 32.5005 13.3402C32.9381 13.6085 33.3577 13.9375 33.7056 14.3119C34.7935 15.484 34.8736 16.9803 33.9805 18.4206V18.4218Z" fill="url(#paint0_radial_49_2714)"/>
<defs>
<radialGradient id="paint0_radial_49_2714" cx="0" cy="0" r="1" gradientUnits="userSpaceOnUse" gradientTransform="translate(-20.2781 42.3168) scale(64.3799 64.2068)">
<stop stop-color="#D65A84"/>
<stop offset="1" stop-color="#3E1E68"/>
</radialGradient>
</defs>
</svg>
