<?xml version="1.0" encoding="UTF-8"?>
<svg id="Layer_1" data-name="Layer 1" xmlns="http://www.w3.org/2000/svg" xmlns:xlink="http://www.w3.org/1999/xlink" viewBox="0 0 1700 527.19">
  <defs>
    <style>
      .cls-1 {
        fill: #2c1047;
      }

      .cls-2 {
        fill: url(#radial-gradient);
      }
    </style>
    <radialGradient id="radial-gradient" cx="-138.06" cy="486.88" fx="-138.06" fy="486.88" r="538.51" gradientUnits="userSpaceOnUse">
      <stop offset="0" stop-color="#d65a84"/>
      <stop offset="1" stop-color="#3e1e68"/>
    </radialGradient>
  </defs>
  <path class="cls-2" d="M366.98,256.77c-7.85-9.11-17.79-15.36-28.58-20.33-15.63-7.2-32.07-11.4-48.94-13.83,4.57-7.25,8.63-14.84,12.01-22.88,4.67-11.13,7.72-22.6,6.99-34.84-.87-14.68-9.27-25.77-23.24-30.38-8.46-2.8-17.16-2.98-25.91-2.02-14.75,1.61-28.66,6.2-42.07,12.37-27.5,12.64-51.5,30.29-72.82,51.65-15.97,16.01-29.76,33.65-39.69,54.1-9.35,4.46-18.46,9.51-27.26,15.27-14.17,9.27-27.01,20.02-36.4,34.38-15.71,24.04-11.82,48.29,10.62,66.22,9.86,7.88,21.14,13.09,30.15,16.32,16.94,5.97,35.9,9.84,53.8,11.3,43.76,3.59,86.59-1.58,128.56-14.16,27.29-8.18,53.18-19.46,76.3-36.42,13.13-9.63,24.62-20.79,32.28-35.46,9.19-17.6,7.16-36.25-5.8-51.29Zm-209.84-62.2c14.99-14.68,31.64-27.07,50.77-35.88,10.14-4.67,20.64-8.27,31.99-8.15,3.18,.03,6.47,.45,9.52,1.34,9.53,2.78,14.74,10.5,14.6,21.02-.12,8.71-2.85,16.75-6.5,24.51-6.5,13.81-15.53,25.89-25.91,36.97-16.41,17.51-35.03,32.11-57.02,41.99-3.78,1.7-7.7,3.11-11.7,4.5-6.71,2.33-13.76,3.59-20.86,3.53-1.45-.01-2.9-.08-4.34-.23-12.35-1.3-19.21-9.54-19.02-22.02,.02-1.04,.07-2.07,.16-3.09,.02-.25,.05-.49,.08-.73,.05-.54,.13-1.07,.2-1.6,.68-4.6,1.98-8.89,3.12-12.04,.1-.27,.2-.54,.3-.81,.09-.24,.18-.47,.27-.7,.77-1.93,1.61-3.83,2.5-5.72,7.8-16.38,18.99-30.28,31.86-42.89Zm158.65,91.9c-6.19,10-14.92,17.4-24.54,23.85-17.11,11.47-35.94,19.18-55.65,24.79-31.14,8.87-62.82,12.85-95.14,9.01-5.52-.65-10.98-1.73-16.54-2.89-9.54-2-18.73-5.49-27.02-10.61-1.56-.97-3.09-1.99-4.56-3.09-13.4-10.08-15.61-24.37-6.73-38.68,2.89-4.67,6.36-8.75,10.2-12.45-.6,3.27-1,6.59-1.13,9.99-.82,21.27,10.9,35.19,32,38.03,9.27,1.25,18.43,.26,25.38-1.12,13.04-2.67,26.57-7.44,38.5-13.33,29.18-14.4,54.43-34.01,76.3-58.01,5.08-5.57,9.87-11.33,14.34-17.31,7.73,2.01,15.2,4.89,22.21,9.2,3.66,2.25,7.17,5.01,10.08,8.15,9.1,9.83,9.77,22.38,2.3,34.46Z"/>
  <g>
    <path class="cls-1" d="M492.27,250.8c-14-3.14-33.06-8.93-33.06-24.86,0-19.79,20.03-21.72,36.92-21.48,16.41,.24,31.37,11.34,31.61,28.48l21-2.41c0-30.89-25.58-44.89-52.37-45.61-27.75-.72-59.61,8.93-59.61,41.03,0,29.2,22.2,38.85,43.92,44.4,16.17,4.1,48.26,7.48,48.26,28.72,0,19.79-18.1,23.41-36.68,23.41s-36.92-11.1-38.37-28.72l-21.96,3.14c2.9,30.89,33.06,45.61,60.57,44.89,29.44-.72,58.88-11.1,58.88-43.44,0-34.03-34.27-42.23-59.12-47.54Z"/>
    <path class="cls-1" d="M598.69,241.39h36.68v-17.13h-40.78l6.52-39.34h-15.69l-3.62,21.24c-2.17,12.31-11.83,16.89-24.37,16.89h-1.45v18.34h21.96v73.12c0,19.07,12.55,27.03,27.27,27.27h34.99v-18.1h-41.51v-82.29Z"/>
    <path class="cls-1" d="M753.37,257.32c0-27.27-28.72-35.48-50.92-35.48-23.41,0-49.47,11.34-49.47,38.61l18.34,1.93c1.45-18.58,13.76-23.65,30.65-23.65,12.31,0,32.1,2.89,32.1,18.82v7.48l-44.4,6.76c-20.51,2.89-44.4,11.1-44.4,35.96s23.17,34.03,44.4,34.03c16.13,0,31.77-7.21,40.01-20.59,1.25-2.03,4.39-1.11,4.39,1.28,0,9.17,3.86,17.13,16.65,17.13h21.21v-16.89h-18.55v-65.4Zm-19.31,32.82c0,24.13-23.41,33.55-44.16,33.55-10.14,0-23.65-3.86-23.65-16.17s12.79-18.58,23.17-20.27l44.64-7.48v10.38Z"/>
    <path class="cls-1" d="M844.59,221.6c-22.68,0-39.82,16.89-45.13,29.2v-81.33h-20.75v169.65h20.03v-25.58c5.55,15.2,20.75,28.24,42.72,28.48,32.82,.48,56.47-26.06,56.47-60.33s-20.75-60.33-53.33-60.09Zm-6.52,102.08c-23.65,0-38.85-19.31-38.85-41.99s14.96-41.75,38.85-41.75,38.85,18.82,38.85,41.75-15.44,41.99-38.85,41.99Z"/>
    <path class="cls-1" d="M937.01,178.65h-20.75v136.35c0,18.58,12.55,26.55,27.27,26.79h13.27v-18.1h-19.79V178.65Z"/>
    <path class="cls-1" d="M1023.88,221.6c-34.51,0-60.09,25.34-60.09,60.09s24.37,60.09,60.33,60.09c21.03,0,37.42-7.31,48.76-19.31l.03,.02s4.89-4.83,8.03-10.65c.04-.07,.1-.14,.14-.22h-.02c1.53-2.91,2.62-6.04,2.43-8.93h-20.03c-7.24,11.59-19.06,19.55-38.61,19.55-24.13,0-37.89-15.68-39.58-36.44h98.22v-4.1c0-34.51-25.34-60.09-59.61-60.09Zm-37.16,47.54c4.58-16.41,18.1-27.99,37.16-27.99s32.58,11.58,36.92,27.99h-74.09Z"/>
    <path class="cls-1" d="M1151.78,250.8c-14-3.14-33.06-8.93-33.06-24.86,0-19.79,20.03-21.72,36.92-21.48,16.41,.24,31.37,11.34,31.61,28.48l21-2.41c0-30.89-25.58-44.89-52.37-45.61-27.75-.72-59.61,8.93-59.61,41.03,0,29.2,22.2,38.85,43.92,44.4,16.17,4.1,48.27,7.48,48.27,28.72,0,19.79-18.1,23.41-36.68,23.41s-36.92-11.1-38.37-28.72l-21.96,3.14c2.9,30.89,33.06,45.61,60.57,44.89,29.44-.72,58.88-11.1,58.88-43.44,0-34.03-34.27-42.23-59.12-47.54Z"/>
    <path class="cls-1" d="M1258.2,241.39h36.68v-17.13h-40.78l6.52-39.34h-15.69l-3.62,21.24c-2.17,12.31-11.82,16.89-24.37,16.89h-1.45v18.34h21.96v73.12c0,19.07,12.55,27.03,27.27,27.27h34.99v-18.1h-41.51v-82.29Z"/>
    <path class="cls-1" d="M1412.89,257.32c0-27.27-28.72-35.48-50.92-35.48-23.41,0-49.47,11.34-49.47,38.61l18.34,1.93c1.45-18.58,13.76-23.65,30.65-23.65,12.31,0,32.1,2.89,32.1,18.82v7.48l-44.4,6.76c-20.51,2.89-44.4,11.1-44.4,35.96s23.17,34.03,44.4,34.03c16.12,0,31.77-7.21,40.01-20.59,1.25-2.03,4.39-1.1,4.39,1.28,0,9.17,3.86,17.13,16.65,17.13h21.21v-16.89h-18.55v-65.4Zm-19.31,32.82c0,24.13-23.41,33.55-44.16,33.55-10.14,0-23.65-3.86-23.65-16.17s12.79-18.58,23.17-20.27l44.64-7.48v10.38Z"/>
    <path class="cls-1" d="M1490.35,241.15c15.93,0,27.99,7.96,34.03,20.03h18.38c-.3-3.12-1.01-6.01-1.99-8.68h.02c-.03-.09-.07-.17-.11-.25-1.84-4.92-4.61-9.06-7.5-12.39-.14-.16-.28-.31-.42-.47-.53-.6-1.07-1.18-1.6-1.73-.59-.61-1.2-1.2-1.83-1.78-.05-.05-.1-.09-.15-.14-.75-.69-1.52-1.37-2.32-2.01-.59-.48-1.16-.93-1.69-1.32-.21-.15-.41-.31-.62-.46-2.05-1.5-3.43-2.26-3.43-2.26v.02c-8.63-5.18-19.18-8.1-30.78-8.1-34.27,0-59.85,25.34-59.85,60.81s25.58,60.09,59.85,60.09c14.98,0,28.21-4.86,37.81-13.19h0s2.19-1.77,4.88-4.89c.02-.03,.05-.05,.07-.08,2.58-3.02,5.58-7.29,7.57-12.48,.03-.08,.08-.16,.11-.24h0c1.01-2.7,1.74-5.62,1.98-8.76l-18.38,.07c-6.03,12.07-18.1,20.03-34.03,20.03-24.13,0-38.61-18.1-38.61-41.03s14.48-40.78,38.61-40.78Z"/>
    <polygon class="cls-1" points="1621.38 279.52 1663.86 224.26 1640.93 224.26 1575.77 308.24 1575.77 178.41 1555.02 178.41 1555.02 339.37 1575.77 339.37 1608.59 296.66 1642.86 339.37 1668.44 339.37 1621.38 279.52"/>
  </g>
</svg>