<?xml version="1.0" encoding="UTF-8"?>
<svg id="Layer_1" data-name="Layer 1" xmlns="http://www.w3.org/2000/svg" viewBox="0 0 1700 527.19">
  <defs>
    <style>
      .cls-1 {
        fill: #e6e2df;
      }
    </style>
  </defs>
  <path class="cls-1" d="M372.24,251.69c-7.77-9.01-17.59-15.19-28.27-20.11-15.46-7.12-31.72-11.28-48.41-13.67,4.52-7.18,8.54-14.68,11.88-22.63,4.62-11.01,7.63-22.35,6.92-34.46-.86-14.52-9.16-25.48-22.99-30.05-8.37-2.77-16.97-2.95-25.63-2-14.59,1.6-28.35,6.14-41.61,12.23-27.2,12.5-50.94,29.96-72.02,51.09-15.79,15.83-29.44,33.29-39.25,53.51-9.25,4.41-18.26,9.41-26.97,15.1-14.02,9.17-26.71,19.8-36,34-15.54,23.78-11.69,47.76,10.51,65.5,9.76,7.79,20.91,12.95,29.82,16.14,16.76,5.9,35.51,9.73,53.21,11.18,43.29,3.55,85.65-1.56,127.16-14,26.99-8.09,52.6-19.25,75.47-36.02,12.99-9.53,24.35-20.56,31.93-35.08,9.09-17.4,7.09-35.85-5.74-50.73Zm-207.56-61.53c14.83-14.52,31.29-26.77,50.21-35.49,10.03-4.62,20.41-8.18,31.64-8.06,3.15,.03,6.4,.44,9.41,1.32,9.42,2.75,14.58,10.38,14.44,20.79-.12,8.62-2.82,16.57-6.43,24.24-6.43,13.66-15.36,25.61-25.63,36.57-16.23,17.32-34.64,31.76-56.4,41.54-3.74,1.68-7.61,3.07-11.57,4.45-6.64,2.3-13.61,3.55-20.63,3.49-1.44-.01-2.87-.08-4.3-.23-12.22-1.28-19-9.43-18.82-21.78,.02-1.03,.07-2.05,.16-3.06,.02-.24,.05-.48,.08-.73,.05-.53,.12-1.06,.2-1.58,.67-4.55,1.96-8.79,3.09-11.91,.1-.27,.19-.54,.3-.8,.09-.24,.18-.47,.26-.69,.76-1.91,1.59-3.79,2.48-5.66,7.72-16.2,18.78-29.95,31.52-42.42Zm156.92,90.9c-6.12,9.89-14.76,17.21-24.27,23.59-16.93,11.35-35.55,18.97-55.04,24.52-30.8,8.77-62.14,12.71-94.1,8.91-5.46-.65-10.86-1.71-16.36-2.86-9.43-1.98-18.53-5.43-26.72-10.5-1.55-.96-3.06-1.97-4.51-3.06-13.25-9.97-15.44-24.11-6.66-38.26,2.86-4.61,6.29-8.65,10.09-12.31-.59,3.23-.99,6.52-1.12,9.88-.81,21.04,10.78,34.81,31.65,37.62,9.17,1.23,18.23,.26,25.1-1.11,12.9-2.64,26.28-7.36,38.08-13.18,28.86-14.25,53.84-33.64,75.47-57.38,5.02-5.51,9.77-11.21,14.18-17.13,7.65,1.99,15.04,4.84,21.97,9.1,3.62,2.22,7.09,4.95,9.97,8.07,9,9.72,9.66,22.14,2.27,34.08Z"/>
  <g>
    <path class="cls-1" d="M496.17,245.78c-13.84-3.1-32.7-8.83-32.7-24.59,0-19.57,19.81-21.48,36.52-21.24,16.23,.24,31.03,11.22,31.27,28.16l20.77-2.39c0-30.55-25.3-44.4-51.8-45.11-27.45-.71-58.96,8.83-58.96,40.58,0,28.88,21.96,38.43,43.44,43.92,15.99,4.06,47.74,7.4,47.74,28.4,0,19.57-17.9,23.15-36.28,23.15s-36.52-10.98-37.95-28.4l-21.72,3.1c2.86,30.55,32.7,45.11,59.91,44.4,29.12-.72,58.24-10.98,58.24-42.96,0-33.66-33.89-41.77-58.48-47.02Z"/>
    <path class="cls-1" d="M601.43,236.47h36.28v-16.95h-40.34l6.45-38.91h-15.52l-3.58,21.01c-2.15,12.17-11.7,16.71-24.11,16.71h-1.43v18.14h21.72v72.32c0,18.86,12.41,26.73,26.97,26.97h34.61v-17.9h-41.06v-81.39Z"/>
    <path class="cls-1" d="M754.42,252.23c0-26.97-28.4-35.09-50.36-35.09-23.15,0-48.93,11.22-48.93,38.19l18.14,1.91c1.43-18.38,13.61-23.39,30.31-23.39,12.17,0,31.75,2.86,31.75,18.62v7.4l-43.92,6.68c-20.29,2.86-43.92,10.98-43.92,35.57s22.91,33.65,43.92,33.65c15.95,0,31.42-7.13,39.58-20.36,1.24-2.01,4.34-1.09,4.34,1.27,0,9.07,3.82,16.95,16.47,16.95h20.98v-16.71h-18.35v-64.68Zm-19.1,32.46c0,23.87-23.15,33.18-43.68,33.18-10.02,0-23.39-3.82-23.39-15.99s12.65-18.38,22.91-20.05l44.16-7.4v10.26Z"/>
    <path class="cls-1" d="M844.65,216.9c-22.44,0-39.38,16.71-44.63,28.88v-80.44h-20.53v167.8h19.81v-25.3c5.49,15.04,20.53,27.93,42.25,28.16,32.46,.48,55.85-25.78,55.85-59.67s-20.53-59.67-52.75-59.43Zm-6.44,100.97c-23.39,0-38.43-19.1-38.43-41.53s14.8-41.3,38.43-41.3,38.43,18.62,38.43,41.3-15.28,41.53-38.43,41.53Z"/>
    <path class="cls-1" d="M936.06,174.42h-20.53v134.86c0,18.38,12.41,26.26,26.97,26.5h13.13v-17.9h-19.57V174.42Z"/>
    <path class="cls-1" d="M1021.99,216.9c-34.13,0-59.43,25.06-59.43,59.43s24.11,59.43,59.67,59.43c20.8,0,37.01-7.23,48.23-19.1l.03,.02s4.83-4.78,7.94-10.53c.04-.07,.09-.14,.14-.22h-.02c1.52-2.88,2.59-5.97,2.4-8.84h-19.81c-7.16,11.46-18.86,19.34-38.19,19.34-23.87,0-37.47-15.51-39.15-36.04h97.15v-4.06c0-34.13-25.06-59.43-58.96-59.43Zm-36.76,47.02c4.53-16.23,17.9-27.69,36.76-27.69s32.22,11.46,36.52,27.69h-73.28Z"/>
    <path class="cls-1" d="M1148.49,245.78c-13.84-3.1-32.7-8.83-32.7-24.59,0-19.57,19.81-21.48,36.52-21.24,16.23,.24,31.03,11.22,31.27,28.16l20.77-2.39c0-30.55-25.3-44.4-51.8-45.11-27.45-.71-58.96,8.83-58.96,40.58,0,28.88,21.96,38.43,43.44,43.92,15.99,4.06,47.74,7.4,47.74,28.4,0,19.57-17.9,23.15-36.28,23.15s-36.52-10.98-37.95-28.4l-21.72,3.1c2.86,30.55,32.7,45.11,59.91,44.4,29.12-.72,58.24-10.98,58.24-42.96,0-33.66-33.89-41.77-58.48-47.02Z"/>
    <path class="cls-1" d="M1253.75,236.47h36.28v-16.95h-40.34l6.45-38.91h-15.51l-3.58,21.01c-2.15,12.17-11.7,16.71-24.11,16.71h-1.43v18.14h21.72v72.32c0,18.86,12.41,26.73,26.97,26.97h34.61v-17.9h-41.06v-81.39Z"/>
    <path class="cls-1" d="M1406.75,252.23c0-26.97-28.4-35.09-50.36-35.09-23.15,0-48.93,11.22-48.93,38.19l18.14,1.91c1.43-18.38,13.61-23.39,30.31-23.39,12.17,0,31.75,2.86,31.75,18.62v7.4l-43.92,6.68c-20.29,2.86-43.92,10.98-43.92,35.57s22.91,33.65,43.92,33.65c15.95,0,31.42-7.13,39.58-20.36,1.24-2.01,4.34-1.09,4.34,1.27,0,9.07,3.82,16.95,16.47,16.95h20.98v-16.71h-18.35v-64.68Zm-19.1,32.46c0,23.87-23.15,33.18-43.68,33.18-10.03,0-23.39-3.82-23.39-15.99s12.65-18.38,22.91-20.05l44.16-7.4v10.26Z"/>
    <path class="cls-1" d="M1483.37,236.24c15.75,0,27.69,7.88,33.65,19.81h18.18c-.3-3.08-1-5.94-1.97-8.58h.02c-.03-.09-.07-.17-.11-.25-1.82-4.87-4.56-8.96-7.41-12.26-.13-.16-.28-.31-.41-.47-.53-.59-1.06-1.17-1.58-1.71-.58-.6-1.19-1.19-1.81-1.76-.05-.04-.1-.09-.15-.13-.74-.68-1.5-1.35-2.29-1.99-.59-.48-1.14-.92-1.67-1.31-.2-.15-.41-.31-.62-.46-2.03-1.48-3.4-2.24-3.4-2.24h0c-8.53-5.11-18.96-8-30.44-8-33.89,0-59.2,25.06-59.2,60.15s25.3,59.44,59.2,59.44c14.82,0,27.91-4.8,37.39-13.05h0s2.17-1.75,4.82-4.84c.02-.03,.05-.05,.07-.08,2.55-2.99,5.52-7.21,7.49-12.35,.03-.08,.07-.16,.11-.24h0c1-2.67,1.72-5.56,1.96-8.66l-18.18,.07c-5.97,11.93-17.9,19.81-33.65,19.81-23.87,0-38.19-17.9-38.19-40.58s14.32-40.34,38.19-40.34Z"/>
    <polygon class="cls-1" points="1612.97 274.19 1654.98 219.53 1632.31 219.53 1567.86 302.59 1567.86 174.18 1547.33 174.18 1547.33 333.38 1567.86 333.38 1600.32 291.14 1634.22 333.38 1659.52 333.38 1612.97 274.19"/>
  </g>
</svg>